<svg width="253" height="26" viewBox="0 0 253 26" fill="none" xmlns="http://www.w3.org/2000/svg">
<g clip-path="url(#clip0_421_153)">
<rect x="0.5" width="70" height="26" rx="13" fill="black"/>
<path d="M34.7691 20.28C34.2357 20.28 33.7824 20.1067 33.4091 19.76C33.0491 19.4 32.8691 18.94 32.8691 18.38C32.8691 17.82 33.0491 17.3667 33.4091 17.02C33.7824 16.66 34.2357 16.48 34.7691 16.48C35.3157 16.48 35.7691 16.66 36.1291 17.02C36.4891 17.3667 36.6691 17.82 36.6691 18.38C36.6691 18.94 36.4891 19.4 36.1291 19.76C35.7691 20.1067 35.3157 20.28 34.7691 20.28ZM37.4261 24L43.3061 6H45.8261L39.9461 24H37.4261Z" fill="white"/>
<path d="M71.82 19.5V5.5H80.62V7.9H74.46V11.28H80.14V13.68H74.46V19.5H71.82ZM82.5836 19.5V9.58H85.0636V10.7H85.4236C85.5703 10.3 85.8103 10.0067 86.1436 9.82C86.4903 9.63333 86.8903 9.54 87.3436 9.54H88.5436V11.78H87.3036C86.6636 11.78 86.1369 11.9533 85.7236 12.3C85.3103 12.6333 85.1036 13.1533 85.1036 13.86V19.5H82.5836ZM93.3589 19.78C92.6522 19.78 92.0189 19.66 91.4589 19.42C90.8989 19.1667 90.4522 18.8067 90.1189 18.34C89.7989 17.86 89.6389 17.28 89.6389 16.6C89.6389 15.92 89.7989 15.3533 90.1189 14.9C90.4522 14.4333 90.9056 14.0867 91.4789 13.86C92.0656 13.62 92.7322 13.5 93.4789 13.5H96.1989V12.94C96.1989 12.4733 96.0522 12.0933 95.7589 11.8C95.4656 11.4933 94.9989 11.34 94.3589 11.34C93.7322 11.34 93.2656 11.4867 92.9589 11.78C92.6522 12.06 92.4522 12.4267 92.3589 12.88L90.0389 12.1C90.1989 11.5933 90.4522 11.1333 90.7989 10.72C91.1589 10.2933 91.6322 9.95333 92.2189 9.7C92.8189 9.43333 93.5456 9.3 94.3989 9.3C95.7056 9.3 96.7389 9.62667 97.4989 10.28C98.2589 10.9333 98.6389 11.88 98.6389 13.12V16.82C98.6389 17.22 98.8256 17.42 99.1989 17.42H99.9989V19.5H98.3189C97.8256 19.5 97.4189 19.38 97.0989 19.14C96.7789 18.9 96.6189 18.58 96.6189 18.18V18.16H96.2389C96.1856 18.32 96.0656 18.5333 95.8789 18.8C95.6922 19.0533 95.3989 19.28 94.9989 19.48C94.5989 19.68 94.0522 19.78 93.3589 19.78ZM93.7989 17.74C94.5056 17.74 95.0789 17.5467 95.5189 17.16C95.9722 16.76 96.1989 16.2333 96.1989 15.58V15.38H93.6589C93.1922 15.38 92.8256 15.48 92.5589 15.68C92.2922 15.88 92.1589 16.16 92.1589 16.52C92.1589 16.88 92.2989 17.1733 92.5789 17.4C92.8589 17.6267 93.2656 17.74 93.7989 17.74ZM101.841 19.5V9.58H104.321V10.88H104.681C104.841 10.5333 105.141 10.2067 105.581 9.9C106.021 9.58 106.688 9.42 107.581 9.42C108.355 9.42 109.028 9.6 109.601 9.96C110.188 10.3067 110.641 10.7933 110.961 11.42C111.281 12.0333 111.441 12.7533 111.441 13.58V19.5H108.921V13.78C108.921 13.0333 108.735 12.4733 108.361 12.1C108.001 11.7267 107.481 11.54 106.801 11.54C106.028 11.54 105.428 11.8 105.001 12.32C104.575 12.8267 104.361 13.54 104.361 14.46V19.5H101.841ZM118.826 19.78C117.866 19.78 116.992 19.58 116.206 19.18C115.432 18.78 114.819 18.2 114.366 17.44C113.912 16.68 113.686 15.76 113.686 14.68V14.4C113.686 13.32 113.912 12.4 114.366 11.64C114.819 10.88 115.432 10.3 116.206 9.9C116.992 9.5 117.866 9.3 118.826 9.3C119.772 9.3 120.586 9.46667 121.266 9.8C121.946 10.1333 122.492 10.5933 122.906 11.18C123.332 11.7533 123.612 12.4067 123.746 13.14L121.306 13.66C121.252 13.26 121.132 12.9 120.946 12.58C120.759 12.26 120.492 12.0067 120.146 11.82C119.812 11.6333 119.392 11.54 118.886 11.54C118.379 11.54 117.919 11.6533 117.506 11.88C117.106 12.0933 116.786 12.42 116.546 12.86C116.319 13.2867 116.206 13.8133 116.206 14.44V14.64C116.206 15.2667 116.319 15.8 116.546 16.24C116.786 16.6667 117.106 16.9933 117.506 17.22C117.919 17.4333 118.379 17.54 118.886 17.54C119.646 17.54 120.219 17.3467 120.606 16.96C121.006 16.56 121.259 16.04 121.366 15.4L123.806 15.98C123.632 16.6867 123.332 17.3333 122.906 17.92C122.492 18.4933 121.946 18.9467 121.266 19.28C120.586 19.6133 119.772 19.78 118.826 19.78ZM125.884 19.5V9.58H128.404V19.5H125.884ZM127.144 8.42C126.691 8.42 126.304 8.27333 125.984 7.98C125.678 7.68667 125.524 7.3 125.524 6.82C125.524 6.34 125.678 5.95333 125.984 5.66C126.304 5.36667 126.691 5.22 127.144 5.22C127.611 5.22 127.998 5.36667 128.304 5.66C128.611 5.95333 128.764 6.34 128.764 6.82C128.764 7.3 128.611 7.68667 128.304 7.98C127.998 8.27333 127.611 8.42 127.144 8.42ZM135.317 19.78C134.024 19.78 132.964 19.5 132.137 18.94C131.31 18.38 130.81 17.58 130.637 16.54L132.957 15.94C133.05 16.4067 133.204 16.7733 133.417 17.04C133.644 17.3067 133.917 17.5 134.237 17.62C134.57 17.7267 134.93 17.78 135.317 17.78C135.904 17.78 136.337 17.68 136.617 17.48C136.897 17.2667 137.037 17.0067 137.037 16.7C137.037 16.3933 136.904 16.16 136.637 16C136.37 15.8267 135.944 15.6867 135.357 15.58L134.797 15.48C134.104 15.3467 133.47 15.1667 132.897 14.94C132.324 14.7 131.864 14.3733 131.517 13.96C131.17 13.5467 130.997 13.0133 130.997 12.36C130.997 11.3733 131.357 10.62 132.077 10.1C132.797 9.56667 133.744 9.3 134.917 9.3C136.024 9.3 136.944 9.54667 137.677 10.04C138.41 10.5333 138.89 11.18 139.117 11.98L136.777 12.7C136.67 12.1933 136.45 11.8333 136.117 11.62C135.797 11.4067 135.397 11.3 134.917 11.3C134.437 11.3 134.07 11.3867 133.817 11.56C133.564 11.72 133.437 11.9467 133.437 12.24C133.437 12.56 133.57 12.8 133.837 12.96C134.104 13.1067 134.464 13.22 134.917 13.3L135.477 13.4C136.224 13.5333 136.897 13.7133 137.497 13.94C138.11 14.1533 138.59 14.4667 138.937 14.88C139.297 15.28 139.477 15.8267 139.477 16.52C139.477 17.56 139.097 18.3667 138.337 18.94C137.59 19.5 136.584 19.78 135.317 19.78ZM146.345 19.78C145.385 19.78 144.512 19.58 143.725 19.18C142.952 18.78 142.338 18.2 141.885 17.44C141.432 16.68 141.205 15.76 141.205 14.68V14.4C141.205 13.32 141.432 12.4 141.885 11.64C142.338 10.88 142.952 10.3 143.725 9.9C144.512 9.5 145.385 9.3 146.345 9.3C147.292 9.3 148.105 9.46667 148.785 9.8C149.465 10.1333 150.012 10.5933 150.425 11.18C150.852 11.7533 151.132 12.4067 151.265 13.14L148.825 13.66C148.772 13.26 148.652 12.9 148.465 12.58C148.278 12.26 148.012 12.0067 147.665 11.82C147.332 11.6333 146.912 11.54 146.405 11.54C145.898 11.54 145.438 11.6533 145.025 11.88C144.625 12.0933 144.305 12.42 144.065 12.86C143.838 13.2867 143.725 13.8133 143.725 14.44V14.64C143.725 15.2667 143.838 15.8 144.065 16.24C144.305 16.6667 144.625 16.9933 145.025 17.22C145.438 17.4333 145.898 17.54 146.405 17.54C147.165 17.54 147.738 17.3467 148.125 16.96C148.525 16.56 148.778 16.04 148.885 15.4L151.325 15.98C151.152 16.6867 150.852 17.3333 150.425 17.92C150.012 18.4933 149.465 18.9467 148.785 19.28C148.105 19.6133 147.292 19.78 146.345 19.78ZM158.124 19.78C157.137 19.78 156.251 19.58 155.464 19.18C154.677 18.78 154.057 18.2 153.604 17.44C153.151 16.68 152.924 15.7667 152.924 14.7V14.38C152.924 13.3133 153.151 12.4 153.604 11.64C154.057 10.88 154.677 10.3 155.464 9.9C156.251 9.5 157.137 9.3 158.124 9.3C159.111 9.3 159.997 9.5 160.784 9.9C161.571 10.3 162.191 10.88 162.644 11.64C163.097 12.4 163.324 13.3133 163.324 14.38V14.7C163.324 15.7667 163.097 16.68 162.644 17.44C162.191 18.2 161.571 18.78 160.784 19.18C159.997 19.58 159.111 19.78 158.124 19.78ZM158.124 17.54C158.897 17.54 159.537 17.2933 160.044 16.8C160.551 16.2933 160.804 15.5733 160.804 14.64V14.44C160.804 13.5067 160.551 12.7933 160.044 12.3C159.551 11.7933 158.911 11.54 158.124 11.54C157.351 11.54 156.711 11.7933 156.204 12.3C155.697 12.7933 155.444 13.5067 155.444 14.44V14.64C155.444 15.5733 155.697 16.2933 156.204 16.8C156.711 17.2933 157.351 17.54 158.124 17.54ZM171.01 19.78C169.25 19.78 167.85 19.3 166.81 18.34C165.77 17.3667 165.25 15.98 165.25 14.18V10.82C165.25 9.02 165.77 7.64 166.81 6.68C167.85 5.70667 169.25 5.22 171.01 5.22C172.77 5.22 174.17 5.70667 175.21 6.68C176.25 7.64 176.77 9.02 176.77 10.82V14.18C176.77 15.98 176.25 17.3667 175.21 18.34C174.17 19.3 172.77 19.78 171.01 19.78ZM171.01 17.42C171.997 17.42 172.763 17.1333 173.31 16.56C173.857 15.9867 174.13 15.22 174.13 14.26V10.74C174.13 9.78 173.857 9.01333 173.31 8.44C172.763 7.86667 171.997 7.58 171.01 7.58C170.037 7.58 169.27 7.86667 168.71 8.44C168.163 9.01333 167.89 9.78 167.89 10.74V14.26C167.89 15.22 168.163 15.9867 168.71 16.56C169.27 17.1333 170.037 17.42 171.01 17.42ZM183.286 19.78C181.992 19.78 180.932 19.5 180.106 18.94C179.279 18.38 178.779 17.58 178.606 16.54L180.926 15.94C181.019 16.4067 181.172 16.7733 181.386 17.04C181.612 17.3067 181.886 17.5 182.206 17.62C182.539 17.7267 182.899 17.78 183.286 17.78C183.872 17.78 184.306 17.68 184.586 17.48C184.866 17.2667 185.006 17.0067 185.006 16.7C185.006 16.3933 184.872 16.16 184.606 16C184.339 15.8267 183.912 15.6867 183.326 15.58L182.766 15.48C182.072 15.3467 181.439 15.1667 180.866 14.94C180.292 14.7 179.832 14.3733 179.486 13.96C179.139 13.5467 178.966 13.0133 178.966 12.36C178.966 11.3733 179.326 10.62 180.046 10.1C180.766 9.56667 181.712 9.3 182.886 9.3C183.992 9.3 184.912 9.54667 185.646 10.04C186.379 10.5333 186.859 11.18 187.086 11.98L184.746 12.7C184.639 12.1933 184.419 11.8333 184.086 11.62C183.766 11.4067 183.366 11.3 182.886 11.3C182.406 11.3 182.039 11.3867 181.786 11.56C181.532 11.72 181.406 11.9467 181.406 12.24C181.406 12.56 181.539 12.8 181.806 12.96C182.072 13.1067 182.432 13.22 182.886 13.3L183.446 13.4C184.192 13.5333 184.866 13.7133 185.466 13.94C186.079 14.1533 186.559 14.4667 186.906 14.88C187.266 15.28 187.446 15.8267 187.446 16.52C187.446 17.56 187.066 18.3667 186.306 18.94C185.559 19.5 184.552 19.78 183.286 19.78ZM193.774 19.78C192.481 19.78 191.421 19.5 190.594 18.94C189.767 18.38 189.267 17.58 189.094 16.54L191.414 15.94C191.507 16.4067 191.661 16.7733 191.874 17.04C192.101 17.3067 192.374 17.5 192.694 17.62C193.027 17.7267 193.387 17.78 193.774 17.78C194.361 17.78 194.794 17.68 195.074 17.48C195.354 17.2667 195.494 17.0067 195.494 16.7C195.494 16.3933 195.361 16.16 195.094 16C194.827 15.8267 194.401 15.6867 193.814 15.58L193.254 15.48C192.561 15.3467 191.927 15.1667 191.354 14.94C190.781 14.7 190.321 14.3733 189.974 13.96C189.627 13.5467 189.454 13.0133 189.454 12.36C189.454 11.3733 189.814 10.62 190.534 10.1C191.254 9.56667 192.201 9.3 193.374 9.3C194.481 9.3 195.401 9.54667 196.134 10.04C196.867 10.5333 197.347 11.18 197.574 11.98L195.234 12.7C195.127 12.1933 194.907 11.8333 194.574 11.62C194.254 11.4067 193.854 11.3 193.374 11.3C192.894 11.3 192.527 11.3867 192.274 11.56C192.021 11.72 191.894 11.9467 191.894 12.24C191.894 12.56 192.027 12.8 192.294 12.96C192.561 13.1067 192.921 13.22 193.374 13.3L193.934 13.4C194.681 13.5333 195.354 13.7133 195.954 13.94C196.567 14.1533 197.047 14.4667 197.394 14.88C197.754 15.28 197.934 15.8267 197.934 16.52C197.934 17.56 197.554 18.3667 196.794 18.94C196.047 19.5 195.041 19.78 193.774 19.78ZM200.142 19.5V9.58H202.662V19.5H200.142ZM201.402 8.42C200.949 8.42 200.562 8.27333 200.242 7.98C199.936 7.68667 199.782 7.3 199.782 6.82C199.782 6.34 199.936 5.95333 200.242 5.66C200.562 5.36667 200.949 5.22 201.402 5.22C201.869 5.22 202.256 5.36667 202.562 5.66C202.869 5.95333 203.022 6.34 203.022 6.82C203.022 7.3 202.869 7.68667 202.562 7.98C202.256 8.27333 201.869 8.42 201.402 8.42ZM208.535 19.78C207.828 19.78 207.195 19.66 206.635 19.42C206.075 19.1667 205.628 18.8067 205.295 18.34C204.975 17.86 204.815 17.28 204.815 16.6C204.815 15.92 204.975 15.3533 205.295 14.9C205.628 14.4333 206.081 14.0867 206.655 13.86C207.241 13.62 207.908 13.5 208.655 13.5H211.375V12.94C211.375 12.4733 211.228 12.0933 210.935 11.8C210.641 11.4933 210.175 11.34 209.535 11.34C208.908 11.34 208.441 11.4867 208.135 11.78C207.828 12.06 207.628 12.4267 207.535 12.88L205.215 12.1C205.375 11.5933 205.628 11.1333 205.975 10.72C206.335 10.2933 206.808 9.95333 207.395 9.7C207.995 9.43333 208.721 9.3 209.575 9.3C210.881 9.3 211.915 9.62667 212.675 10.28C213.435 10.9333 213.815 11.88 213.815 13.12V16.82C213.815 17.22 214.001 17.42 214.375 17.42H215.175V19.5H213.495C213.001 19.5 212.595 19.38 212.275 19.14C211.955 18.9 211.795 18.58 211.795 18.18V18.16H211.415C211.361 18.32 211.241 18.5333 211.055 18.8C210.868 19.0533 210.575 19.28 210.175 19.48C209.775 19.68 209.228 19.78 208.535 19.78ZM208.975 17.74C209.681 17.74 210.255 17.5467 210.695 17.16C211.148 16.76 211.375 16.2333 211.375 15.58V15.38H208.835C208.368 15.38 208.001 15.48 207.735 15.68C207.468 15.88 207.335 16.16 207.335 16.52C207.335 16.88 207.475 17.1733 207.755 17.4C208.035 17.6267 208.441 17.74 208.975 17.74ZM217.017 19.5V9.58H219.497V10.88H219.857C220.017 10.5333 220.317 10.2067 220.757 9.9C221.197 9.58 221.864 9.42 222.757 9.42C223.531 9.42 224.204 9.6 224.777 9.96C225.364 10.3067 225.817 10.7933 226.137 11.42C226.457 12.0333 226.617 12.7533 226.617 13.58V19.5H224.097V13.78C224.097 13.0333 223.911 12.4733 223.537 12.1C223.177 11.7267 222.657 11.54 221.977 11.54C221.204 11.54 220.604 11.8 220.177 12.32C219.751 12.8267 219.537 13.54 219.537 14.46V19.5H217.017Z" fill="white"/>
</g>
<defs>
<clipPath id="clip0_421_153">
<rect width="252" height="26" fill="white" transform="translate(0.5)"/>
</clipPath>
</defs>
</svg>
