<svg width="187" height="15" viewBox="0 0 187 15" fill="none" xmlns="http://www.w3.org/2000/svg">
<path d="M12.455 13.64V14.5H0.375V13.64H2.315V0.519999H11.635L11.615 2.72H4.675V6.56H10.875V8.74H4.675V13.64H12.455ZM27.5053 13.64V14.5H23.1853L19.8453 9.8H16.7453V14.5H12.4453V13.64H14.3853V0.519999H19.5853C21.7186 0.519999 23.2453 0.879999 24.1653 1.6C25.0853 2.32 25.5453 3.47333 25.5453 5.06C25.5453 7.36667 24.5386 8.82 22.5253 9.42L25.5653 13.64H27.5053ZM19.6853 7.66C21.0186 7.66 21.9253 7.45333 22.4053 7.04C22.8853 6.62667 23.1253 5.96667 23.1253 5.06C23.1253 4.14 22.8786 3.51333 22.3853 3.18C21.892 2.83333 21.012 2.66 19.7453 2.66H16.7453V7.66H19.6853ZM43.7761 13.64V14.5H39.3161L37.9161 11.32H30.9161L29.5161 14.5H25.0561V13.64H27.3761L33.1561 0.519999H35.6761L41.4561 13.64H43.7761ZM36.9561 9.14L34.4161 3.38L31.8761 9.14H36.9561ZM43.7798 13.64V0.519999H46.1398L54.2598 10.96V0.519999H56.6198V13.64H58.5598V14.5H54.0598L46.1398 4.3V14.5H41.8398V13.64H43.7798ZM73.2786 13.64V14.5H58.5586V13.64H62.9986C61.9453 13.0133 61.1119 12.16 60.4986 11.08C59.8986 10 59.5986 8.78 59.5986 7.42C59.5986 5.36667 60.3053 3.64667 61.7186 2.26C63.1453 0.873333 64.9386 0.18 67.0986 0.18C69.2719 0.18 71.0853 0.98 72.5386 2.58L71.0386 4.22C70.3719 3.58 69.7386 3.13333 69.1386 2.88C68.5519 2.62667 67.8586 2.5 67.0586 2.5C65.6453 2.5 64.4586 2.96 63.4986 3.88C62.5386 4.78667 62.0586 5.95333 62.0586 7.38C62.0586 8.79333 62.5319 9.98 63.4786 10.94C64.4386 11.8867 65.5719 12.36 66.8786 12.36C67.6919 12.36 68.3919 12.2267 68.9786 11.96C69.5653 11.68 70.1786 11.24 70.8186 10.64L72.3386 12.2C71.7519 12.84 71.1919 13.32 70.6586 13.64H73.2786ZM75.2252 13.64V0.519999H77.5852V13.64H79.5252V14.5H73.2852V13.64H75.2252ZM92.1156 13.64V14.5H79.5156V13.64H82.0756C81.4356 13.3067 80.849 12.8933 80.3156 12.4L81.7956 10.62C83.209 11.8467 84.6756 12.46 86.1956 12.46C86.9556 12.46 87.5556 12.3 87.9956 11.98C88.449 11.6467 88.6756 11.2133 88.6756 10.68C88.6756 10.1333 88.4623 9.71333 88.0356 9.42C87.6223 9.11333 86.9023 8.84 85.8756 8.6C84.849 8.34667 84.069 8.12 83.5356 7.92C83.0023 7.70667 82.529 7.43333 82.1156 7.1C81.289 6.47333 80.8756 5.51333 80.8756 4.22C80.8756 2.92667 81.3423 1.93333 82.2756 1.24C83.2223 0.533333 84.389 0.18 85.7756 0.18C86.669 0.18 87.5556 0.326666 88.4356 0.62C89.3156 0.913333 90.0756 1.32667 90.7156 1.86L89.4556 3.64C89.0423 3.26667 88.4823 2.96 87.7756 2.72C87.069 2.48 86.369 2.36 85.6756 2.36C84.9956 2.36 84.4356 2.5 83.9956 2.78C83.5556 3.06 83.3356 3.48667 83.3356 4.06C83.3356 4.62 83.5556 5.05333 83.9956 5.36C84.4356 5.65333 85.369 5.97333 86.7956 6.32C88.2356 6.66667 89.3156 7.15333 90.0356 7.78C90.769 8.40667 91.1356 9.28667 91.1356 10.42C91.1356 11.7933 90.629 12.8667 89.6156 13.64H92.1156ZM106.833 13.64V14.5H92.1133V13.64H96.5533C95.4999 13.0133 94.6666 12.16 94.0533 11.08C93.4533 10 93.1533 8.78 93.1533 7.42C93.1533 5.36667 93.8599 3.64667 95.2733 2.26C96.6999 0.873333 98.4933 0.18 100.653 0.18C102.827 0.18 104.64 0.98 106.093 2.58L104.593 4.22C103.927 3.58 103.293 3.13333 102.693 2.88C102.107 2.62667 101.413 2.5 100.613 2.5C99.1999 2.5 98.0133 2.96 97.0533 3.88C96.0933 4.78667 95.6133 5.95333 95.6133 7.38C95.6133 8.79333 96.0866 9.98 97.0333 10.94C97.9933 11.8867 99.1266 12.36 100.433 12.36C101.247 12.36 101.947 12.2267 102.533 11.96C103.12 11.68 103.733 11.24 104.373 10.64L105.893 12.2C105.307 12.84 104.747 13.32 104.213 13.64H106.833ZM123.64 13.64V14.5H106.84V13.64H111.42C110.327 13.0133 109.46 12.1533 108.82 11.06C108.193 9.96667 107.88 8.74667 107.88 7.4C107.88 5.34667 108.587 3.63333 110 2.26C111.413 0.873333 113.16 0.18 115.24 0.18C117.32 0.18 119.067 0.873333 120.48 2.26C121.893 3.63333 122.6 5.34667 122.6 7.4C122.6 8.73333 122.28 9.95333 121.64 11.06C121.013 12.1667 120.153 13.0267 119.06 13.64H123.64ZM118.74 3.82C117.793 2.83333 116.627 2.34 115.24 2.34C113.853 2.34 112.68 2.83333 111.72 3.82C110.773 4.80667 110.3 6.00667 110.3 7.42C110.3 8.82 110.773 10.0133 111.72 11C112.68 11.9867 113.853 12.48 115.24 12.48C116.627 12.48 117.793 11.9867 118.74 11C119.7 10.0133 120.18 8.82 120.18 7.42C120.18 6.00667 119.7 4.80667 118.74 3.82ZM136.237 13.64V14.5H123.637V13.64H126.197C125.557 13.3067 124.97 12.8933 124.437 12.4L125.917 10.62C127.33 11.8467 128.797 12.46 130.317 12.46C131.077 12.46 131.677 12.3 132.117 11.98C132.57 11.6467 132.797 11.2133 132.797 10.68C132.797 10.1333 132.583 9.71333 132.157 9.42C131.743 9.11333 131.023 8.84 129.997 8.6C128.97 8.34667 128.19 8.12 127.657 7.92C127.123 7.70667 126.65 7.43333 126.237 7.1C125.41 6.47333 124.997 5.51333 124.997 4.22C124.997 2.92667 125.463 1.93333 126.397 1.24C127.343 0.533333 128.51 0.18 129.897 0.18C130.79 0.18 131.677 0.326666 132.557 0.62C133.437 0.913333 134.197 1.32667 134.837 1.86L133.577 3.64C133.163 3.26667 132.603 2.96 131.897 2.72C131.19 2.48 130.49 2.36 129.797 2.36C129.117 2.36 128.557 2.5 128.117 2.78C127.677 3.06 127.457 3.48667 127.457 4.06C127.457 4.62 127.677 5.05333 128.117 5.36C128.557 5.65333 129.49 5.97333 130.917 6.32C132.357 6.66667 133.437 7.15333 134.157 7.78C134.89 8.40667 135.257 9.28667 135.257 10.42C135.257 11.7933 134.75 12.8667 133.737 13.64H136.237ZM148.834 13.64V14.5H136.234V13.64H138.794C138.154 13.3067 137.568 12.8933 137.034 12.4L138.514 10.62C139.928 11.8467 141.394 12.46 142.914 12.46C143.674 12.46 144.274 12.3 144.714 11.98C145.168 11.6467 145.394 11.2133 145.394 10.68C145.394 10.1333 145.181 9.71333 144.754 9.42C144.341 9.11333 143.621 8.84 142.594 8.6C141.568 8.34667 140.788 8.12 140.254 7.92C139.721 7.70667 139.248 7.43333 138.834 7.1C138.008 6.47333 137.594 5.51333 137.594 4.22C137.594 2.92667 138.061 1.93333 138.994 1.24C139.941 0.533333 141.108 0.18 142.494 0.18C143.388 0.18 144.274 0.326666 145.154 0.62C146.034 0.913333 146.794 1.32667 147.434 1.86L146.174 3.64C145.761 3.26667 145.201 2.96 144.494 2.72C143.788 2.48 143.088 2.36 142.394 2.36C141.714 2.36 141.154 2.5 140.714 2.78C140.274 3.06 140.054 3.48667 140.054 4.06C140.054 4.62 140.274 5.05333 140.714 5.36C141.154 5.65333 142.088 5.97333 143.514 6.32C144.954 6.66667 146.034 7.15333 146.754 7.78C147.488 8.40667 147.854 9.28667 147.854 10.42C147.854 11.7933 147.348 12.8667 146.334 13.64H148.834ZM150.772 13.64V0.519999H153.132V13.64H155.072V14.5H148.832V13.64H150.772ZM171.843 13.64V14.5H167.383L165.983 11.32H158.983L157.583 14.5H153.122V13.64H155.443L161.223 0.519999H163.743L169.523 13.64H171.843ZM165.023 9.14L162.483 3.38L159.943 9.14H165.023ZM171.846 13.64V0.519999H174.206L182.326 10.96V0.519999H184.686V13.64H186.626V14.5H182.126L174.206 4.3V14.5H169.906V13.64H171.846Z" fill="white" fill-opacity="0.5"/>
</svg>
