<svg width="522" height="1130" viewBox="0 0 522 1130" fill="none" xmlns="http://www.w3.org/2000/svg">
<path fill-rule="evenodd" clip-rule="evenodd" d="M0 76C0 34.0264 34.0264 0 76 0H446C487.974 0 522 34.0264 522 76V1054C522 1095.97 487.974 1130 446 1130H76C34.0264 1130 0 1095.97 0 1054V76ZM11 72C11 44.3858 33.3858 22 61 22L191.594 22L331.406 22C312.087 22 304.193 31.0849 296.336 40.1271C288.552 49.0845 280.805 58.0001 262.024 58C243.243 57.9999 235.237 49.0844 227.192 40.127C219.074 31.0873 210.917 22.0048 191.609 22H461C488.614 22 511 44.3858 511 72V1026C511 1048.09 493.091 1066 471 1066H51C28.9086 1066 11 1048.09 11 1026V72Z" fill="#8A8A8A"/>
</svg>
